<?xml version="1.0" encoding="UTF-8" standalone="no"?>
<!-- Created with Inkscape (http://www.inkscape.org/) -->
<svg
   xmlns:dc="http://purl.org/dc/elements/1.1/"
   xmlns:cc="http://web.resource.org/cc/"
   xmlns:rdf="http://www.w3.org/1999/02/22-rdf-syntax-ns#"
   xmlns:svg="http://www.w3.org/2000/svg"
   xmlns="http://www.w3.org/2000/svg"
   xmlns:sodipodi="http://sodipodi.sourceforge.net/DTD/sodipodi-0.dtd"
   xmlns:inkscape="http://www.inkscape.org/namespaces/inkscape"
   id="svg1920"
   sodipodi:version="0.32"
   inkscape:version="0.44.1"
   width="100"
   height="100"
   version="1.0"
   sodipodi:docbase="E:\SVG"
   sodipodi:docname="littlebluedog.svg">
  <metadata
     id="metadata1925">
    <rdf:RDF>
      <cc:Work
         rdf:about="">
        <dc:format>image/svg+xml</dc:format>
        <dc:type
           rdf:resource="http://purl.org/dc/dcmitype/StillImage" />
      </cc:Work>
    </rdf:RDF>
  </metadata>
  <defs
     id="defs1923" />
  <sodipodi:namedview
     inkscape:window-height="721"
     inkscape:window-width="1024"
     inkscape:pageshadow="2"
     inkscape:pageopacity="0.0"
     guidetolerance="10.0"
     gridtolerance="10.0"
     objecttolerance="10.0"
     borderopacity="1.0"
     bordercolor="#666666"
     pagecolor="#ffffff"
     id="base"
     inkscape:zoom="3.81"
     inkscape:cx="50"
     inkscape:cy="32.618373"
     inkscape:window-x="-4"
     inkscape:window-y="-4"
     inkscape:current-layer="svg1920" />
  <g
     id="g2830">
    <path
       id="path1941"
       d="M 47.799699,93.957411 C 36.24756,87.856516 28.822359,71.514 30.319279,55.483834 C 30.66206,51.81308 30.512456,48.816716 29.969652,48.481244 C 29.447822,48.158735 27.148541,47.820201 24.860138,47.728946 C 20.940099,47.572625 20.371101,47.928945 15.024201,53.888443 C 8.8748953,60.74228 6.5644571,61.406852 4.2374328,56.991142 C 2.1383452,53.007959 3.0055716,39.81405 5.5962963,36.317506 C 10.656968,29.487423 18.708869,27.180211 26.346885,30.371578 L 29.629533,31.743156 L 31.85622,26.889439 C 35.747394,18.407482 44.98331,14.877053 53.725666,18.529843 C 56.654642,19.753647 57.532022,19.803658 58.111569,18.779843 C 60.636744,14.31892 65.596085,8.5807428 69.153676,6.0036375 C 74.893853,1.8454749 81.717179,1.8005985 88.147702,5.8787155 C 95.891404,10.789626 99.821415,20.010627 94.75,21.369714 C 93.5125,21.701351 90.786769,21.978835 88.69282,21.986345 C 81.781306,22.011134 76.186835,24.023177 73.028921,27.619843 L 70.059487,31.001841 L 75.421002,41.25092 C 82.678516,55.124395 84.418821,60.78475 84.413778,70.5 C 84.407468,82.655848 80.790303,88.408681 70,93.424046 C 62.998633,96.678302 53.388912,96.909177 47.799699,93.957411 z "
       style="fill:black" />
    <path
       id="path1939"
       d="M 54.302048,91.223099 C 50.311355,87.824971 44,78.437264 44,75.899511 C 44,72.528365 46.642243,73.879263 48.597361,78.25 C 50.682373,82.911121 56.965772,89.692191 61.264125,91.920024 C 63.745086,93.205904 64.47205,93.120778 68.959643,91.018902 C 77.830747,86.8639 82.009681,80.372878 81.988131,70.782119 C 81.967591,61.640881 77.510642,49.051925 69.937258,36.743607 C 67.156412,32.224157 67.068203,31.768789 68.454351,29.088276 C 70.411381,25.303796 75.289059,21.294646 78.726045,20.645576 C 80.25172,20.357455 84.5375,19.833515 88.25,19.481266 C 91.9625,19.129016 95,18.494147 95,18.070445 C 95,17.646742 93.690437,15.492278 92.08986,13.282745 C 88.357529,8.1304117 81.254996,4.5419795 76.540104,5.4264986 C 71.866008,6.3033644 63.963649,13.672485 61.068204,19.854382 L 58.695794,24.919575 L 56.097897,23.098593 C 54.669054,22.097053 51.806058,20.728124 49.735685,20.056529 C 46.416691,18.979902 45.450509,19.087591 41.568519,20.966831 C 36.600237,23.371935 34.352756,26.246292 33.150057,31.733404 C 32.695984,33.805032 31.913965,35.390363 31.412235,35.256363 C 30.910506,35.122362 27.980399,34.127388 24.900888,33.045308 C 20.445843,31.479893 18.568922,31.280241 15.715164,32.068202 C 8.7977088,33.978203 4.1332572,42.734473 5.4293089,51.377165 C 5.8067443,53.894085 6.5666924,56.232201 7.1180824,56.572979 C 7.6694724,56.913757 10.690875,54.449246 13.83231,51.096287 C 19.236301,45.328429 19.785256,45.00537 24.022005,45.09968 C 33.59199,45.312708 33.345886,44.961352 33.427755,58.52803 C 33.493049,69.348168 33.758617,71.051813 36.188021,76.235464 C 40.120686,84.626638 43.525827,88.584814 49.277749,91.451118 C 56.094329,94.847963 58.434301,94.741768 54.302048,91.223099 z "
       style="fill:#2a598d;fill-opacity:1" />
    <path
       id="path1937"
       d="M 52,73.712087 C 50.40107,72.907231 49.382877,71.438958 49.175044,69.638395 C 48.562018,64.327429 55.17193,59.76427 63.655732,59.641639 C 72.305483,59.516608 75.38033,64.017688 70.559228,69.747242 C 66.657683,74.383965 57.304335,76.38214 52,73.712087 z "
       style="fill:black" />
    <path
       id="path1935"
       d="M 65.065741,65.964816 C 68.076561,64.353474 67.47898,62 64.059017,62 C 60.846172,62 59.512199,63.286427 60.380002,65.547887 C 61.03808,67.262809 62.411996,67.385058 65.065741,65.964816 z "
       style="fill:white" />
    <path
       id="path1933"
       d="M 41.25,51.337719 C 39.385132,50.585229 39.688706,45.056685 41.635923,44.309468 C 45.468472,42.838781 48.69913,48.284397 45.417611,50.683903 C 43.504833,52.08256 43.210388,52.128753 41.25,51.337719 z "
       style="fill:black" />
    <path
       id="path1929"
       d="M 60.409741,44.625384 C 59.211301,41.502299 60.423902,39.5 63.513695,39.5 C 66.165145,39.5 66.5,39.836391 66.5,42.5 C 66.5,45.030878 66.069083,45.549566 63.744314,45.816971 C 61.985727,46.019251 60.779168,45.588096 60.409741,44.625384 z "
       style="fill:black" />
  </g>
</svg>
